<svg xmlns="http://www.w3.org/2000/svg" width="1600" height="520" viewBox="0 0 1600 520" fill="none">
  <defs>
    <filter id="glow" x="-20%" y="-20%" width="140%" height="140%">
      <feGaussianBlur stdDeviation="10" result="blur" />
      <feMerge>
        <feMergeNode in="blur" />
        <feMergeNode in="SourceGraphic" />
      </feMerge>
    </filter>
    <linearGradient id="fade-right" x1="0" y1="0" x2="1" y2="0">
      <stop offset="0%" stop-color="rgba(8, 16, 29, 0.02)" />
      <stop offset="55%" stop-color="rgba(8, 16, 29, 0.0)" />
      <stop offset="100%" stop-color="rgba(8, 16, 29, 0.16)" />
    </linearGradient>
  </defs>
  <g filter="url(#glow)">
    <circle cx="70" cy="72" r="2.2" fill="rgba(127, 211, 255, 0.22)" stroke="none" stroke-width="0" opacity="1.0" /><circle cx="242" cy="86" r="2.8" fill="rgba(215, 239, 255, 0.2)" stroke="none" stroke-width="0" opacity="1.0" /><circle cx="316" cy="176" r="2.1" fill="rgba(127, 211, 255, 0.14)" stroke="none" stroke-width="0" opacity="1.0" /><circle cx="352" cy="428" r="2.2" fill="rgba(226, 180, 108, 0.18)" stroke="none" stroke-width="0" opacity="1.0" /><circle cx="408" cy="268" r="2.0" fill="rgba(215, 239, 255, 0.12)" stroke="none" stroke-width="0" opacity="1.0" /><circle cx="548" cy="64" r="2.6" fill="rgba(226, 180, 108, 0.16)" stroke="none" stroke-width="0" opacity="1.0" /><circle cx="616" cy="118" r="2.0" fill="rgba(127, 211, 255, 0.14)" stroke="none" stroke-width="0" opacity="1.0" /><circle cx="708" cy="212" r="2.5" fill="rgba(215, 239, 255, 0.16)" stroke="none" stroke-width="0" opacity="1.0" /><circle cx="742" cy="58" r="2.0" fill="rgba(127, 211, 255, 0.12)" stroke="none" stroke-width="0" opacity="1.0" /><circle cx="786" cy="452" r="2.2" fill="rgba(226, 180, 108, 0.18)" stroke="none" stroke-width="0" opacity="1.0" /><circle cx="872" cy="258" r="2.0" fill="rgba(215, 239, 255, 0.14)" stroke="none" stroke-width="0" opacity="1.0" /><circle cx="930" cy="102" r="2.4" fill="rgba(127, 211, 255, 0.12)" stroke="none" stroke-width="0" opacity="1.0" /><circle cx="1030" cy="170" r="2.0" fill="rgba(226, 180, 108, 0.12)" stroke="none" stroke-width="0" opacity="1.0" /><circle cx="1184" cy="88" r="2.6" fill="rgba(215, 239, 255, 0.18)" stroke="none" stroke-width="0" opacity="1.0" /><circle cx="1262" cy="398" r="2.2" fill="rgba(127, 211, 255, 0.14)" stroke="none" stroke-width="0" opacity="1.0" /><circle cx="1348" cy="406" r="2.4" fill="rgba(226, 180, 108, 0.16)" stroke="none" stroke-width="0" opacity="1.0" /><circle cx="1428" cy="88" r="2.0" fill="rgba(215, 239, 255, 0.12)" stroke="none" stroke-width="0" opacity="1.0" /><circle cx="1490" cy="140" r="2.3" fill="rgba(127, 211, 255, 0.16)" stroke="none" stroke-width="0" opacity="1.0" /><circle cx="1546" cy="242" r="2.2" fill="rgba(226, 180, 108, 0.14)" stroke="none" stroke-width="0" opacity="1.0" />
    <g opacity="0.88"><line x1="176" y1="224" x2="112" y2="164" stroke="rgba(215, 239, 255, 0.84)" stroke-width="4" stroke-linecap="round" opacity="1.0" /><line x1="176" y1="224" x2="110" y2="302" stroke="rgba(215, 239, 255, 0.84)" stroke-width="4" stroke-linecap="round" opacity="1.0" /><ellipse cx="176" cy="224" rx="92" ry="54" fill="none" stroke="rgba(127, 211, 255, 0.16)" stroke-width="2" opacity="0.8" transform="rotate(-20 176 224)" /><ellipse cx="176" cy="224" rx="64" ry="118" fill="none" stroke="rgba(226, 180, 108, 0.14)" stroke-width="2" opacity="0.7" transform="rotate(16 176 224)" /><circle cx="176" cy="224" r="14" fill="rgba(226, 180, 108, 0.96)" stroke="rgba(255, 247, 219, 0.78)" stroke-width="1.2" opacity="1.0" /><circle cx="112" cy="164" r="8.5" fill="rgba(215, 239, 255, 0.95)" stroke="rgba(255, 255, 255, 0.65)" stroke-width="1" opacity="1.0" /><circle cx="110" cy="302" r="8.5" fill="rgba(215, 239, 255, 0.95)" stroke="rgba(255, 255, 255, 0.65)" stroke-width="1" opacity="1.0" /></g>
    <g opacity="0.8"><line x1="390" y1="130" x2="462" y2="130" stroke="rgba(215, 239, 255, 0.72)" stroke-width="2.6" stroke-linecap="round" opacity="1.0" /><line x1="462" y1="130" x2="534" y2="130" stroke="rgba(215, 239, 255, 0.72)" stroke-width="2.6" stroke-linecap="round" opacity="1.0" /><line x1="390" y1="138" x2="462" y2="138" stroke="rgba(215, 239, 255, 0.72)" stroke-width="2.6" stroke-linecap="round" opacity="1.0" /><line x1="462" y1="138" x2="534" y2="138" stroke="rgba(215, 239, 255, 0.72)" stroke-width="2.6" stroke-linecap="round" opacity="1.0" /><ellipse cx="462" cy="134" rx="112" ry="28" fill="none" stroke="rgba(127, 211, 255, 0.14)" stroke-width="2" opacity="0.8" transform="rotate(0 462 134)" /><circle cx="462" cy="134" r="10.5" fill="rgba(226, 180, 108, 0.94)" stroke="rgba(255, 247, 219, 0.68)" stroke-width="1.1" opacity="1.0" /><circle cx="390" cy="134" r="12.5" fill="rgba(127, 211, 255, 0.92)" stroke="rgba(255, 255, 255, 0.58)" stroke-width="1" opacity="1.0" /><circle cx="534" cy="134" r="12.5" fill="rgba(127, 211, 255, 0.92)" stroke="rgba(255, 255, 255, 0.58)" stroke-width="1" opacity="1.0" /><circle cx="462" cy="134" r="20" fill="rgba(226, 180, 108, 0.07)" stroke="none" stroke-width="0" opacity="1.0" /><circle cx="390" cy="134" r="24" fill="rgba(127, 211, 255, 0.06)" stroke="none" stroke-width="0" opacity="1.0" /><circle cx="534" cy="134" r="24" fill="rgba(127, 211, 255, 0.06)" stroke="none" stroke-width="0" opacity="1.0" /></g>
    <g opacity="0.78"><ellipse cx="700" cy="154" rx="122" ry="58" fill="none" stroke="rgba(226, 180, 108, 0.1)" stroke-width="2" opacity="0.7" transform="rotate(14 700 154)" /><ellipse cx="700" cy="154" rx="72" ry="132" fill="none" stroke="rgba(127, 211, 255, 0.11)" stroke-width="2" opacity="0.7" transform="rotate(-24 700 154)" /><line x1="700" y1="154" x2="634" y2="112" stroke="rgba(215, 239, 255, 0.74)" stroke-width="3.2" stroke-linecap="round" opacity="1.0" /><circle cx="634" cy="112" r="9.5" fill="rgba(215, 239, 255, 0.9)" stroke="rgba(255, 255, 255, 0.56)" stroke-width="1" opacity="1.0" /><circle cx="634" cy="112" r="22" fill="rgba(215, 239, 255, 0.05)" stroke="none" stroke-width="0" opacity="1.0" /><line x1="700" y1="154" x2="768" y2="122" stroke="rgba(215, 239, 255, 0.74)" stroke-width="3.2" stroke-linecap="round" opacity="1.0" /><circle cx="768" cy="122" r="9.5" fill="rgba(215, 239, 255, 0.9)" stroke="rgba(255, 255, 255, 0.56)" stroke-width="1" opacity="1.0" /><circle cx="768" cy="122" r="22" fill="rgba(215, 239, 255, 0.05)" stroke="none" stroke-width="0" opacity="1.0" /><line x1="700" y1="154" x2="780" y2="224" stroke="rgba(215, 239, 255, 0.74)" stroke-width="3.2" stroke-linecap="round" opacity="1.0" /><circle cx="780" cy="224" r="9.5" fill="rgba(215, 239, 255, 0.9)" stroke="rgba(255, 255, 255, 0.56)" stroke-width="1" opacity="1.0" /><circle cx="780" cy="224" r="22" fill="rgba(215, 239, 255, 0.05)" stroke="none" stroke-width="0" opacity="1.0" /><line x1="700" y1="154" x2="622" y2="234" stroke="rgba(215, 239, 255, 0.74)" stroke-width="3.2" stroke-linecap="round" opacity="1.0" /><circle cx="622" cy="234" r="9.5" fill="rgba(215, 239, 255, 0.9)" stroke="rgba(255, 255, 255, 0.56)" stroke-width="1" opacity="1.0" /><circle cx="622" cy="234" r="22" fill="rgba(215, 239, 255, 0.05)" stroke="none" stroke-width="0" opacity="1.0" /><circle cx="700" cy="154" r="13.5" fill="rgba(226, 180, 108, 0.94)" stroke="rgba(255, 247, 219, 0.72)" stroke-width="1.1" opacity="1.0" /><circle cx="700" cy="154" r="30" fill="rgba(226, 180, 108, 0.06)" stroke="none" stroke-width="0" opacity="1.0" /></g>
    <g opacity="0.82"><line x1="860" y1="356" x2="946" y2="312" stroke="rgba(204, 232, 255, 0.8)" stroke-width="3.6" stroke-linecap="round" opacity="1.0" /><line x1="946" y1="312" x2="1038" y2="356" stroke="rgba(204, 232, 255, 0.8)" stroke-width="3.6" stroke-linecap="round" opacity="1.0" /><line x1="1038" y1="356" x2="1126" y2="312" stroke="rgba(204, 232, 255, 0.8)" stroke-width="3.6" stroke-linecap="round" opacity="1.0" /><line x1="1126" y1="312" x2="1216" y2="356" stroke="rgba(204, 232, 255, 0.8)" stroke-width="3.6" stroke-linecap="round" opacity="1.0" /><ellipse cx="1038" cy="336" rx="210" ry="62" fill="none" stroke="rgba(127, 211, 255, 0.1)" stroke-width="2" opacity="0.8" transform="rotate(-6 1038 336)" /><circle cx="860" cy="356" r="10.5" fill="rgba(226, 180, 108, 0.9)" stroke="rgba(255, 255, 255, 0.52)" stroke-width="1" opacity="1.0" /><circle cx="860" cy="356" r="24" fill="rgba(226, 180, 108, 0.06)" stroke="none" stroke-width="0" opacity="1.0" /><circle cx="946" cy="312" r="10.5" fill="rgba(127, 211, 255, 0.9)" stroke="rgba(255, 255, 255, 0.52)" stroke-width="1" opacity="1.0" /><circle cx="946" cy="312" r="24" fill="rgba(127, 211, 255, 0.06)" stroke="none" stroke-width="0" opacity="1.0" /><circle cx="1038" cy="356" r="10.5" fill="rgba(226, 180, 108, 0.9)" stroke="rgba(255, 255, 255, 0.52)" stroke-width="1" opacity="1.0" /><circle cx="1038" cy="356" r="24" fill="rgba(226, 180, 108, 0.06)" stroke="none" stroke-width="0" opacity="1.0" /><circle cx="1126" cy="312" r="10.5" fill="rgba(127, 211, 255, 0.9)" stroke="rgba(255, 255, 255, 0.52)" stroke-width="1" opacity="1.0" /><circle cx="1126" cy="312" r="24" fill="rgba(127, 211, 255, 0.06)" stroke="none" stroke-width="0" opacity="1.0" /><circle cx="1216" cy="356" r="10.5" fill="rgba(226, 180, 108, 0.9)" stroke="rgba(255, 255, 255, 0.52)" stroke-width="1" opacity="1.0" /><circle cx="1216" cy="356" r="24" fill="rgba(226, 180, 108, 0.06)" stroke="none" stroke-width="0" opacity="1.0" /></g>
    <g opacity="0.74"><ellipse cx="618" cy="358" rx="100.8" ry="50.4" fill="none" stroke="rgba(127, 211, 255, 0.1)" stroke-width="2" opacity="0.7" transform="rotate(-18 618 358)" /><line x1="625.969630943304" y1="302.5699992546678" x2="673.1798148074708" y2="348.4507572125731" stroke="rgba(215, 239, 255, 0.74)" stroke-width="3.4" stroke-linecap="round" opacity="1.0" /><line x1="673.1798148074708" y1="348.4507572125731" x2="644.1333701006378" y2="407.5282441358776" stroke="rgba(215, 239, 255, 0.74)" stroke-width="3.4" stroke-linecap="round" opacity="1.0" /><line x1="644.1333701006378" y1="407.5282441358776" x2="578.9714961553036" y2="398.15938106650196" stroke="rgba(215, 239, 255, 0.74)" stroke-width="3.4" stroke-linecap="round" opacity="1.0" /><line x1="578.9714961553036" y1="398.15938106650196" x2="567.7456879932839" y2="333.2916183303796" stroke="rgba(215, 239, 255, 0.74)" stroke-width="3.4" stroke-linecap="round" opacity="1.0" /><line x1="567.7456879932839" y1="333.2916183303796" x2="625.969630943304" y2="302.5699992546678" stroke="rgba(215, 239, 255, 0.74)" stroke-width="3.4" stroke-linecap="round" opacity="1.0" /><circle cx="625.969630943304" cy="302.5699992546678" r="9.5" fill="rgba(127, 211, 255, 0.9)" stroke="rgba(255, 255, 255, 0.55)" stroke-width="1" opacity="1.0" /><circle cx="625.969630943304" cy="302.5699992546678" r="20" fill="rgba(127, 211, 255, 0.05)" stroke="none" stroke-width="0" opacity="1.0" /><circle cx="673.1798148074708" cy="348.4507572125731" r="9.5" fill="rgba(226, 180, 108, 0.88)" stroke="rgba(255, 255, 255, 0.55)" stroke-width="1" opacity="1.0" /><circle cx="673.1798148074708" cy="348.4507572125731" r="20" fill="rgba(226, 180, 108, 0.05)" stroke="none" stroke-width="0" opacity="1.0" /><circle cx="644.1333701006378" cy="407.5282441358776" r="9.5" fill="rgba(226, 180, 108, 0.88)" stroke="rgba(255, 255, 255, 0.55)" stroke-width="1" opacity="1.0" /><circle cx="644.1333701006378" cy="407.5282441358776" r="20" fill="rgba(226, 180, 108, 0.05)" stroke="none" stroke-width="0" opacity="1.0" /><circle cx="578.9714961553036" cy="398.15938106650196" r="9.5" fill="rgba(226, 180, 108, 0.88)" stroke="rgba(255, 255, 255, 0.55)" stroke-width="1" opacity="1.0" /><circle cx="578.9714961553036" cy="398.15938106650196" r="20" fill="rgba(226, 180, 108, 0.05)" stroke="none" stroke-width="0" opacity="1.0" /><circle cx="567.7456879932839" cy="333.2916183303796" r="9.5" fill="rgba(226, 180, 108, 0.88)" stroke="rgba(255, 255, 255, 0.55)" stroke-width="1" opacity="1.0" /><circle cx="567.7456879932839" cy="333.2916183303796" r="20" fill="rgba(226, 180, 108, 0.05)" stroke="none" stroke-width="0" opacity="1.0" /></g>
    <g opacity="0.92"><circle cx="1328" cy="214" r="53.760000000000005" fill="none" stroke="rgba(127, 211, 255, 0.24)" stroke-width="3" opacity="0.9" /><line x1="1328.0" y1="118.0" x2="1411.138438763306" y2="166.0" stroke="rgba(215, 239, 255, 0.9)" stroke-width="4.2" stroke-linecap="round" opacity="1.0" /><line x1="1411.138438763306" y1="166.0" x2="1411.138438763306" y2="262.0" stroke="rgba(215, 239, 255, 0.9)" stroke-width="4.2" stroke-linecap="round" opacity="1.0" /><line x1="1411.138438763306" y1="262.0" x2="1328.0" y2="310.0" stroke="rgba(215, 239, 255, 0.9)" stroke-width="4.2" stroke-linecap="round" opacity="1.0" /><line x1="1328.0" y1="310.0" x2="1244.861561236694" y2="262.0" stroke="rgba(215, 239, 255, 0.9)" stroke-width="4.2" stroke-linecap="round" opacity="1.0" /><line x1="1244.861561236694" y1="262.0" x2="1244.861561236694" y2="166.0" stroke="rgba(215, 239, 255, 0.9)" stroke-width="4.2" stroke-linecap="round" opacity="1.0" /><line x1="1244.861561236694" y1="166.0" x2="1328.0" y2="118.0" stroke="rgba(215, 239, 255, 0.9)" stroke-width="4.2" stroke-linecap="round" opacity="1.0" /><circle cx="1328.0" cy="118.0" r="11" fill="rgba(226, 180, 108, 0.95)" stroke="rgba(255, 247, 219, 0.72)" stroke-width="1.3" opacity="1.0" /><circle cx="1328.0" cy="118.0" r="22" fill="rgba(226, 180, 108, 0.08)" stroke="none" stroke-width="0" opacity="1.0" /><circle cx="1411.138438763306" cy="166.0" r="11" fill="rgba(226, 180, 108, 0.95)" stroke="rgba(255, 247, 219, 0.72)" stroke-width="1.3" opacity="1.0" /><circle cx="1411.138438763306" cy="166.0" r="22" fill="rgba(226, 180, 108, 0.08)" stroke="none" stroke-width="0" opacity="1.0" /><circle cx="1411.138438763306" cy="262.0" r="11" fill="rgba(226, 180, 108, 0.95)" stroke="rgba(255, 247, 219, 0.72)" stroke-width="1.3" opacity="1.0" /><circle cx="1411.138438763306" cy="262.0" r="22" fill="rgba(226, 180, 108, 0.08)" stroke="none" stroke-width="0" opacity="1.0" /><circle cx="1328.0" cy="310.0" r="11" fill="rgba(226, 180, 108, 0.95)" stroke="rgba(255, 247, 219, 0.72)" stroke-width="1.3" opacity="1.0" /><circle cx="1328.0" cy="310.0" r="22" fill="rgba(226, 180, 108, 0.08)" stroke="none" stroke-width="0" opacity="1.0" /><circle cx="1244.861561236694" cy="262.0" r="11" fill="rgba(226, 180, 108, 0.95)" stroke="rgba(255, 247, 219, 0.72)" stroke-width="1.3" opacity="1.0" /><circle cx="1244.861561236694" cy="262.0" r="22" fill="rgba(226, 180, 108, 0.08)" stroke="none" stroke-width="0" opacity="1.0" /><circle cx="1244.861561236694" cy="166.0" r="11" fill="rgba(226, 180, 108, 0.95)" stroke="rgba(255, 247, 219, 0.72)" stroke-width="1.3" opacity="1.0" /><circle cx="1244.861561236694" cy="166.0" r="22" fill="rgba(226, 180, 108, 0.08)" stroke="none" stroke-width="0" opacity="1.0" /></g>
    <g opacity="0.62"><line x1="1492" y1="350" x2="1550" y2="320" stroke="rgba(215, 239, 255, 0.62)" stroke-width="3" stroke-linecap="round" opacity="1.0" /><ellipse cx="1520" cy="336" rx="72" ry="26" fill="none" stroke="rgba(127, 211, 255, 0.08)" stroke-width="1.8" opacity="0.7" transform="rotate(-18 1520 336)" /><circle cx="1492" cy="350" r="9" fill="rgba(215, 239, 255, 0.88)" stroke="rgba(255, 255, 255, 0.48)" stroke-width="1" opacity="1.0" /><circle cx="1550" cy="320" r="10.5" fill="rgba(226, 180, 108, 0.84)" stroke="rgba(255, 247, 219, 0.54)" stroke-width="1" opacity="1.0" /></g>
  </g>
  <rect width="1600" height="520" fill="url(#fade-right)" />
</svg>
