<?xml version="1.0" encoding="UTF-8"?>
<svg xmlns="http://www.w3.org/2000/svg" xmlns:xlink="http://www.w3.org/1999/xlink" width="1594.022" height="518.057" viewBox="0 0 1594.022 518.057">
<defs>
<clipPath id="clip-0">
<path clip-rule="nonzero" d="M 0.960938 0 L 1592.085938 0 L 1592.085938 517.117188 L 0.960938 517.117188 Z M 0.960938 0 "/>
</clipPath>
</defs>
<g clip-path="url(#clip-0)">
<path fill-rule="nonzero" fill="rgb(3.135681%, 6.27594%, 11.373901%)" fill-opacity="1" d="M 0.960938 517.117188 L 0.960938 -0.0078125 L 1592.105469 -0.0078125 L 1592.105469 517.117188 Z M 0.960938 517.117188 "/>
</g>
<path fill-rule="nonzero" fill="rgb(49.804688%, 82.743835%, 100%)" fill-opacity="0.04" d="M 1123.09375 360.921875 C 1128.835938 306.300781 1002.421875 248.246094 840.738281 231.253906 C 679.054688 214.261719 543.335938 244.765625 537.59375 299.386719 C 531.855469 354.011719 658.265625 412.066406 819.949219 429.058594 C 981.632812 446.050781 1117.355469 415.546875 1123.09375 360.921875 Z M 1123.09375 360.921875 "/>
<path fill-rule="nonzero" fill="rgb(88.627625%, 70.588684%, 42.353821%)" fill-opacity="0.035" d="M 1287.039062 149.632812 C 1280.3125 101.773438 1149.644531 80.570312 995.179688 102.28125 C 840.714844 123.988281 720.953125 180.386719 727.679688 228.25 C 734.40625 276.109375 865.074219 297.3125 1019.539062 275.601562 C 1174.003906 253.894531 1293.765625 197.496094 1287.039062 149.632812 Z M 1287.039062 149.632812 "/>
<path fill-rule="nonzero" fill="rgb(84.313965%, 93.725586%, 100%)" fill-opacity="0.022" d="M 755.554688 271.476562 C 760.378906 225.59375 666.875 178.160156 546.703125 165.53125 C 426.535156 152.902344 325.210938 179.859375 320.386719 225.742188 C 315.566406 271.625 409.070312 319.058594 529.242188 331.6875 C 649.410156 344.316406 750.734375 317.359375 755.554688 271.476562 Z M 755.554688 271.476562 "/>
<path fill-rule="nonzero" fill="rgb(88.627625%, 70.588684%, 42.353821%)" fill-opacity="1" stroke-width="0.3985" stroke-linecap="round" stroke-linejoin="round" stroke="rgb(88.627625%, 70.588684%, 42.353821%)" stroke-opacity="1" stroke-miterlimit="10" d="M 515.820952 358.658004 C 515.820952 361.823913 513.257701 364.387164 510.095705 364.387164 C 506.929797 364.387164 504.366546 361.823913 504.366546 358.658004 C 504.366546 355.496009 506.929797 352.932758 510.095705 352.932758 C 513.257701 352.932758 515.820952 355.496009 515.820952 358.658004 Z M 515.820952 358.658004 " transform="matrix(0.998183, 0, 0, -0.998183, 0.960022, 517.115713)"/>
<path fill-rule="nonzero" fill="rgb(88.627625%, 70.588684%, 42.353821%)" fill-opacity="1" stroke-width="0.3985" stroke-linecap="round" stroke-linejoin="round" stroke="rgb(88.627625%, 70.588684%, 42.353821%)" stroke-opacity="1" stroke-miterlimit="10" d="M 515.820952 159.405346 C 515.820952 162.567341 513.257701 165.134505 510.095705 165.134505 C 506.929797 165.134505 504.366546 162.567341 504.366546 159.405346 C 504.366546 156.239437 506.929797 153.676186 510.095705 153.676186 C 513.257701 153.676186 515.820952 156.239437 515.820952 159.405346 Z M 515.820952 159.405346 " transform="matrix(0.998183, 0, 0, -0.998183, 0.960022, 517.115713)"/>
<path fill-rule="nonzero" fill="rgb(49.804688%, 82.743835%, 100%)" fill-opacity="1" stroke-width="0.3985" stroke-linecap="round" stroke-linejoin="round" stroke="rgb(49.804688%, 82.743835%, 100%)" stroke-opacity="1" stroke-miterlimit="10" d="M 982.078277 358.658004 C 982.078277 361.823913 979.515026 364.387164 976.353031 364.387164 C 973.187122 364.387164 970.623871 361.823913 970.623871 358.658004 C 970.623871 355.496009 973.187122 352.932758 976.353031 352.932758 C 979.515026 352.932758 982.078277 355.496009 982.078277 358.658004 Z M 982.078277 358.658004 " transform="matrix(0.998183, 0, 0, -0.998183, 0.960022, 517.115713)"/>
<path fill-rule="nonzero" fill="rgb(49.804688%, 82.743835%, 100%)" fill-opacity="1" stroke-width="0.3985" stroke-linecap="round" stroke-linejoin="round" stroke="rgb(49.804688%, 82.743835%, 100%)" stroke-opacity="1" stroke-miterlimit="10" d="M 982.078277 159.405346 C 982.078277 162.567341 979.515026 165.134505 976.353031 165.134505 C 973.187122 165.134505 970.623871 162.567341 970.623871 159.405346 C 970.623871 156.239437 973.187122 153.676186 976.353031 153.676186 C 979.515026 153.676186 982.078277 156.239437 982.078277 159.405346 Z M 982.078277 159.405346 " transform="matrix(0.998183, 0, 0, -0.998183, 0.960022, 517.115713)"/>
<path fill="none" stroke-width="4.18436" stroke-linecap="round" stroke-linejoin="round" stroke="rgb(84.313965%, 93.725586%, 100%)" stroke-opacity="1" stroke-miterlimit="10" d="M 119.554077 358.658004 L 504.366546 358.658004 " transform="matrix(0.998183, 0, 0, -0.998183, 0.960022, 517.115713)"/>
<path fill="none" stroke-width="4.18436" stroke-linecap="round" stroke-linejoin="round" stroke="rgb(84.313965%, 93.725586%, 100%)" stroke-opacity="1" stroke-miterlimit="10" d="M 119.554077 358.658004 L 504.366546 358.658004 " transform="matrix(0.998183, 0, 0, -0.998183, 0.960022, 517.115713)"/>
<path fill="none" stroke-width="4.18436" stroke-linecap="round" stroke-linejoin="round" stroke="rgb(84.313965%, 93.725586%, 100%)" stroke-opacity="1" stroke-miterlimit="10" d="M 119.554077 159.405346 L 504.366546 159.405346 " transform="matrix(0.998183, 0, 0, -0.998183, 0.960022, 517.115713)"/>
<path fill="none" stroke-width="4.18436" stroke-linecap="round" stroke-linejoin="round" stroke="rgb(84.313965%, 93.725586%, 100%)" stroke-opacity="1" stroke-miterlimit="10" d="M 119.554077 159.405346 L 504.366546 159.405346 " transform="matrix(0.998183, 0, 0, -0.998183, 0.960022, 517.115713)"/>
<path fill="none" stroke-width="4.18436" stroke-linecap="round" stroke-linejoin="round" stroke="rgb(49.804688%, 82.743835%, 100%)" stroke-opacity="1" stroke-miterlimit="10" d="M 982.078277 358.658004 L 1460.541373 358.658004 " transform="matrix(0.998183, 0, 0, -0.998183, 0.960022, 517.115713)"/>
<path fill="none" stroke-width="4.18436" stroke-linecap="round" stroke-linejoin="round" stroke="rgb(49.804688%, 82.743835%, 100%)" stroke-opacity="1" stroke-miterlimit="10" d="M 982.078277 358.658004 L 1460.541373 358.658004 " transform="matrix(0.998183, 0, 0, -0.998183, 0.960022, 517.115713)"/>
<path fill="none" stroke-width="4.18436" stroke-linecap="round" stroke-linejoin="round" stroke="rgb(49.804688%, 82.743835%, 100%)" stroke-opacity="1" stroke-miterlimit="10" d="M 982.078277 159.405346 L 1460.541373 159.405346 " transform="matrix(0.998183, 0, 0, -0.998183, 0.960022, 517.115713)"/>
<path fill="none" stroke-width="4.18436" stroke-linecap="round" stroke-linejoin="round" stroke="rgb(49.804688%, 82.743835%, 100%)" stroke-opacity="1" stroke-miterlimit="10" d="M 982.078277 159.405346 L 1460.541373 159.405346 " transform="matrix(0.998183, 0, 0, -0.998183, 0.960022, 517.115713)"/>
<path fill="none" stroke-width="3.88547" stroke-linecap="round" stroke-linejoin="round" stroke="rgb(84.313965%, 93.725586%, 100%)" stroke-opacity="1" stroke-miterlimit="10" d="M 515.820952 358.658004 L 970.623871 358.658004 " transform="matrix(0.998183, 0, 0, -0.998183, 0.960022, 517.115713)"/>
<path fill="none" stroke-width="3.88547" stroke-linecap="round" stroke-linejoin="round" stroke="rgb(84.313965%, 93.725586%, 100%)" stroke-opacity="1" stroke-miterlimit="10" d="M 515.820952 358.658004 L 970.623871 358.658004 " transform="matrix(0.998183, 0, 0, -0.998183, 0.960022, 517.115713)"/>
<path fill="none" stroke-width="3.88547" stroke-linecap="round" stroke-linejoin="round" stroke="rgb(49.804688%, 82.743835%, 100%)" stroke-opacity="1" stroke-miterlimit="10" d="M 515.820952 159.405346 L 970.623871 159.405346 " transform="matrix(0.998183, 0, 0, -0.998183, 0.960022, 517.115713)"/>
<path fill="none" stroke-width="3.88547" stroke-linecap="round" stroke-linejoin="round" stroke="rgb(49.804688%, 82.743835%, 100%)" stroke-opacity="1" stroke-miterlimit="10" d="M 515.820952 159.405346 L 970.623871 159.405346 " transform="matrix(0.998183, 0, 0, -0.998183, 0.960022, 517.115713)"/>
<path fill="none" stroke-width="3.88547" stroke-linecap="round" stroke-linejoin="round" stroke="rgb(88.627625%, 70.588684%, 42.353821%)" stroke-opacity="1" stroke-miterlimit="10" d="M 510.095705 344.961243 L 510.095705 350.694316 L 510.71793 348.459787 L 511.171879 346.225258 L 511.340154 343.986816 L 511.171879 341.752287 L 510.71793 339.517758 L 510.095705 337.28323 L 509.469568 335.044787 L 509.015618 332.810259 L 508.847343 330.57573 L 509.015618 328.341201 L 509.469568 326.102759 L 510.095705 323.86823 L 510.71793 321.633701 L 511.171879 319.395259 L 511.340154 317.16073 L 511.171879 314.926202 L 510.71793 312.691673 L 510.095705 310.453231 L 509.469568 308.218702 L 509.015618 305.984173 L 508.847343 303.749644 L 509.015618 301.511202 L 509.469568 299.276673 L 510.095705 297.042145 L 510.71793 294.803702 L 511.171879 292.569174 L 511.340154 290.334645 L 511.171879 288.100116 L 510.71793 285.861674 L 510.095705 283.627145 L 509.469568 281.392616 L 509.015618 279.158088 L 508.847343 276.919645 L 509.015618 274.685117 L 509.469568 272.450588 L 510.095705 270.212146 L 510.71793 267.977617 L 511.171879 265.743088 L 511.340154 263.508559 L 511.171879 261.270117 L 510.71793 259.035588 L 510.095705 256.80106 L 509.469568 254.562617 L 509.015618 252.328089 L 508.847343 250.09356 L 509.015618 247.859031 L 509.469568 245.620589 L 510.095705 243.38606 L 510.71793 241.151531 L 511.171879 238.917002 L 511.340154 236.67856 L 511.171879 234.444032 L 510.71793 232.209503 L 510.095705 229.971061 L 509.469568 227.736532 L 509.015618 225.502003 L 508.847343 223.267474 L 509.015618 221.029032 L 509.469568 218.794503 L 510.095705 216.559975 L 510.71793 214.325446 L 511.171879 212.087004 L 511.340154 209.852475 L 511.171879 207.617946 L 510.71793 205.379504 L 510.095705 203.144975 L 509.469568 200.910446 L 509.015618 198.675917 L 508.847343 196.437475 L 509.015618 194.202947 L 509.469568 191.968418 L 510.095705 189.733889 L 510.71793 187.495447 L 511.171879 185.260918 L 511.340154 183.026389 L 511.171879 180.787947 L 510.71793 178.553418 L 510.095705 176.318889 L 509.469568 174.084361 L 509.015618 171.845919 L 508.847343 169.61139 L 507.959011 172.812519 " transform="matrix(0.998183, 0, 0, -0.998183, 0.960022, 517.115713)"/>
<path fill="none" stroke-width="3.88547" stroke-linecap="round" stroke-linejoin="round" stroke="rgb(88.627625%, 70.588684%, 42.353821%)" stroke-opacity="1" stroke-miterlimit="10" d="M 976.353031 344.961243 L 976.353031 350.694316 L 976.975255 348.459787 L 977.429205 346.225258 L 977.597479 343.986816 L 977.429205 341.752287 L 976.975255 339.517758 L 976.353031 337.28323 L 975.726893 335.044787 L 975.272943 332.810259 L 975.104669 330.57573 L 975.272943 328.341201 L 975.726893 326.102759 L 976.353031 323.86823 L 976.975255 321.633701 L 977.429205 319.395259 L 977.597479 317.16073 L 977.429205 314.926202 L 976.975255 312.691673 L 976.353031 310.453231 L 975.726893 308.218702 L 975.272943 305.984173 L 975.104669 303.749644 L 975.272943 301.511202 L 975.726893 299.276673 L 976.353031 297.042145 L 976.975255 294.803702 L 977.429205 292.569174 L 977.597479 290.334645 L 977.429205 288.100116 L 976.975255 285.861674 L 976.353031 283.627145 L 975.726893 281.392616 L 975.272943 279.158088 L 975.104669 276.919645 L 975.272943 274.685117 L 975.726893 272.450588 L 976.353031 270.212146 L 976.975255 267.977617 L 977.429205 265.743088 L 977.597479 263.508559 L 977.429205 261.270117 L 976.975255 259.035588 L 976.353031 256.80106 L 975.726893 254.562617 L 975.272943 252.328089 L 975.104669 250.09356 L 975.272943 247.859031 L 975.726893 245.620589 L 976.353031 243.38606 L 976.975255 241.151531 L 977.429205 238.917002 L 977.597479 236.67856 L 977.429205 234.444032 L 976.975255 232.209503 L 976.353031 229.971061 L 975.726893 227.736532 L 975.272943 225.502003 L 975.104669 223.267474 L 975.272943 221.029032 L 975.726893 218.794503 L 976.353031 216.559975 L 976.975255 214.325446 L 977.429205 212.087004 L 977.597479 209.852475 L 977.429205 207.617946 L 976.975255 205.379504 L 976.353031 203.144975 L 975.726893 200.910446 L 975.272943 198.675917 L 975.104669 196.437475 L 975.272943 194.202947 L 975.726893 191.968418 L 976.353031 189.733889 L 976.975255 187.495447 L 977.429205 185.260918 L 977.597479 183.026389 L 977.429205 180.787947 L 976.975255 178.553418 L 976.353031 176.318889 L 975.726893 174.084361 L 975.272943 171.845919 L 975.104669 169.61139 L 974.216336 172.812519 " transform="matrix(0.998183, 0, 0, -0.998183, 0.960022, 517.115713)"/>
<path fill="none" stroke-width="1.34497" stroke-linecap="round" stroke-linejoin="round" stroke="rgb(84.313965%, 93.725586%, 100%)" stroke-opacity="1" stroke-miterlimit="10" d="M 279.677045 358.658004 L 342.177324 358.658004 " transform="matrix(0.998183, 0, 0, -0.998183, 0.960022, 517.115713)"/>
<path fill-rule="nonzero" fill="rgb(84.313965%, 93.725586%, 100%)" fill-opacity="1" stroke-width="1.34497" stroke-linecap="round" stroke-linejoin="miter" stroke="rgb(84.313965%, 93.725586%, 100%)" stroke-opacity="1" stroke-miterlimit="10" d="M 14.262234 -0.00166591 L 0.671133 6.114916 L 0.671133 -6.114335 Z M 14.262234 -0.00166591 " transform="matrix(0.998183, 0, 0, -0.998183, 342.181649, 159.107712)"/>
<path fill="none" stroke-width="1.34497" stroke-linecap="round" stroke-linejoin="round" stroke="rgb(84.313965%, 93.725586%, 100%)" stroke-opacity="1" stroke-miterlimit="10" d="M 279.677045 159.405346 L 342.177324 159.405346 " transform="matrix(0.998183, 0, 0, -0.998183, 0.960022, 517.115713)"/>
<path fill-rule="nonzero" fill="rgb(84.313965%, 93.725586%, 100%)" fill-opacity="1" stroke-width="1.34497" stroke-linecap="round" stroke-linejoin="miter" stroke="rgb(84.313965%, 93.725586%, 100%)" stroke-opacity="1" stroke-miterlimit="10" d="M 14.262234 0.00104584 L 0.671133 6.113715 L 0.671133 -6.111623 Z M 14.262234 0.00104584 " transform="matrix(0.998183, 0, 0, -0.998183, 342.181649, 358.001044)"/>
<path fill="none" stroke-width="1.34497" stroke-linecap="round" stroke-linejoin="round" stroke="rgb(49.804688%, 82.743835%, 100%)" stroke-opacity="1" stroke-miterlimit="10" d="M 1174.869977 358.658004 L 1256.103512 358.658004 " transform="matrix(0.998183, 0, 0, -0.998183, 0.960022, 517.115713)"/>
<path fill-rule="nonzero" fill="rgb(49.804688%, 82.743835%, 100%)" fill-opacity="1" stroke-width="1.34497" stroke-linecap="round" stroke-linejoin="miter" stroke="rgb(49.804688%, 82.743835%, 100%)" stroke-opacity="1" stroke-miterlimit="10" d="M 14.263752 -0.00166591 L 0.672651 6.114916 L 0.672651 -6.114335 Z M 14.263752 -0.00166591 " transform="matrix(0.998183, 0, 0, -0.998183, 1254.445758, 159.107712)"/>
<path fill="none" stroke-width="1.34497" stroke-linecap="round" stroke-linejoin="round" stroke="rgb(49.804688%, 82.743835%, 100%)" stroke-opacity="1" stroke-miterlimit="10" d="M 1174.869977 159.405346 L 1256.103512 159.405346 " transform="matrix(0.998183, 0, 0, -0.998183, 0.960022, 517.115713)"/>
<path fill-rule="nonzero" fill="rgb(49.804688%, 82.743835%, 100%)" fill-opacity="1" stroke-width="1.34497" stroke-linecap="round" stroke-linejoin="miter" stroke="rgb(49.804688%, 82.743835%, 100%)" stroke-opacity="1" stroke-miterlimit="10" d="M 14.263752 0.00104584 L 0.672651 6.113715 L 0.672651 -6.111623 Z M 14.263752 0.00104584 " transform="matrix(0.998183, 0, 0, -0.998183, 1254.445758, 358.001044)"/>
<path fill="none" stroke-width="1.34497" stroke-linecap="round" stroke-linejoin="round" stroke="rgb(84.313965%, 93.725586%, 100%)" stroke-opacity="1" stroke-miterlimit="10" d="M 701.259448 358.658004 L 778.908345 358.658004 " transform="matrix(0.998183, 0, 0, -0.998183, 0.960022, 517.115713)"/>
<path fill-rule="nonzero" fill="rgb(84.313965%, 93.725586%, 100%)" fill-opacity="1" stroke-width="1.34497" stroke-linecap="round" stroke-linejoin="miter" stroke="rgb(84.313965%, 93.725586%, 100%)" stroke-opacity="1" stroke-miterlimit="10" d="M 14.261371 -0.00166591 L 0.674184 6.114916 L 0.674184 -6.114335 Z M 14.261371 -0.00166591 " transform="matrix(0.998183, 0, 0, -0.998183, 778.116104, 159.107712)"/>
<path fill="none" stroke-width="1.34497" stroke-linecap="round" stroke-linejoin="round" stroke="rgb(49.804688%, 82.743835%, 100%)" stroke-opacity="1" stroke-miterlimit="10" d="M 785.185375 159.405346 L 707.536478 159.405346 " transform="matrix(0.998183, 0, 0, -0.998183, 0.960022, 517.115713)"/>
<path fill-rule="nonzero" fill="rgb(49.804688%, 82.743835%, 100%)" fill-opacity="1" stroke-width="1.34497" stroke-linecap="round" stroke-linejoin="miter" stroke="rgb(49.804688%, 82.743835%, 100%)" stroke-opacity="1" stroke-miterlimit="10" d="M 14.261599 -0.00104584 L 0.674411 6.111623 L 0.674411 -6.113715 Z M 14.261599 -0.00104584 " transform="matrix(-0.998183, 0, 0, 0.998183, 707.548186, 358.001044)"/>
</svg>
